<svg viewBox="0 0 55 50"><path d="M50.6 49.9H4.4c-2.4 0-4.3-2-4.3-4.3v-41C.1 2.2 2 .3 4.4.3h10.2c3.5 0 4.6 1.5 5.5 2.8 1 1.3 1.8 2.4 4.7 2.4h20.5c2.4 0 4.3 2 4.3 4.3V13h4.6c.3 0 .5.2.5.5v32.1c.2 2.3-1.7 4.3-4.1 4.3zm-44.4-1h44.3c1.8 0 3.3-1.5 3.3-3.3V14H6.2v34.9zM4.4 1.1c-1.8 0-3.3 1.5-3.3 3.3v41c0 1.8 1.5 3.3 3.3 3.3h.8V13.5c0-.3.2-.5.5-.5h43.1V9.6c0-1.8-1.5-3.3-3.3-3.3H24.9c-3.5 0-4.6-1.5-5.5-2.8-1-1.3-1.8-2.4-4.7-2.4H4.4z"/><path d="M47.1 28.7h-1.4l-1.3 12.5h-.2L43 28.7h-2.9l-1.2 12.5h-.2l-1.3-12.5H36l1.3 13.2h2.9l1.2-12.5h.2l1.2 12.5h2.9l1.4-13.2zM24.9 44.2h8.8v-1.4h-8.8v1.4zm-9.9-14h2.5c.7 0 1.3.2 1.8.6.5.4.7.9.7 1.5v.1c0 .7-.2 1.2-.7 1.6s-1 .6-1.8.6H15v-4.4zm0 5.8h2.6c.8 0 1.4.2 1.8.6.4.4.7.9.7 1.6v.1c0 .7-.2 1.2-.7 1.5-.5.4-1.1.6-1.8.6H15V36zm-2.7 5.9h5.3c.6 0 1.2-.1 1.7-.3.5-.2.9-.4 1.2-.7.3-.3.6-.7.8-1.1.2-.4.3-.9.3-1.4v-.2c0-.7-.2-1.3-.6-1.8-.4-.5-1-.8-1.6-1v-.2c.3-.1.6-.2.9-.4.3-.2.5-.4.7-.6.2-.2.4-.5.5-.8.1-.3.2-.6.2-1v-.2c0-.5-.1-.9-.3-1.4-.2-.4-.4-.8-.8-1.1-.3-.3-.7-.5-1.2-.7-.5-.2-1-.3-1.7-.3h-5.3v1.5h1.1v10.3h-1.1v1.4z"/></svg>